<?xml version="1.0" standalone="no"?>
<!DOCTYPE svg PUBLIC "-//W3C//DTD SVG 20010904//EN"
 "http://www.w3.org/TR/2001/REC-SVG-20010904/DTD/svg10.dtd">
<svg version="1.0" xmlns="http://www.w3.org/2000/svg"
 width="512.000000pt" height="512.000000pt" viewBox="0 0 512.000000 512.000000"
 preserveAspectRatio="xMidYMid meet">
<metadata>
Created by potrace 1.14, written by Peter Selinger 2001-2017
</metadata>
<g transform="translate(0.000000,512.000000) scale(0.100000,-0.100000)"
fill="#000000" stroke="none">
<path d="M3980 4583 c-61 -4 -247 -23 -500 -53 -91 -10 -248 -29 -350 -40
-503 -58 -762 -89 -766 -93 -8 -10 -21 -1453 -14 -1645 0 -11 183 -12 1068 -6
589 3 1075 11 1084 16 16 8 18 57 18 723 0 453 -4 731 -10 760 -48 212 -269
353 -530 338z"/>
<path d="M2155 4379 c-27 -4 -113 -15 -190 -24 -77 -8 -216 -24 -310 -35 -93
-12 -226 -27 -295 -35 -406 -45 -452 -53 -542 -102 -103 -57 -189 -178 -207
-292 -11 -67 -32 -1135 -23 -1159 5 -13 194 -12 1278 4 l382 6 6 192 c3 105 7
475 9 821 l2 630 -30 2 c-16 0 -52 -3 -80 -8z"/>
<path d="M591 2650 c-6 -3 -13 -245 -17 -591 -7 -582 -7 -585 15 -649 55 -166
200 -272 396 -291 44 -4 141 -15 215 -23 74 -9 203 -23 285 -31 83 -9 184 -20
225 -25 41 -6 125 -14 185 -20 61 -5 142 -14 180 -19 39 -6 89 -11 111 -11
l42 0 6 132 c4 73 7 446 9 830 l2 696 -822 4 c-453 2 -827 2 -832 -2z"/>
<path d="M2346 2642 c-6 -10 -11 -1660 -5 -1666 2 -3 52 -10 109 -16 58 -7
139 -16 180 -20 41 -5 122 -13 180 -19 58 -6 143 -15 190 -21 112 -13 352 -39
415 -44 28 -2 111 -11 185 -20 447 -51 532 -48 678 29 101 53 153 107 204 212
l23 48 5 725 c3 399 4 742 2 763 l-3 37 -1079 0 c-593 0 -1081 -4 -1084 -8z"/>
</g>
</svg>
